<svg xmlns="http://www.w3.org/2000/svg" viewBox="0 0 200 200" width="200" height="200">
<defs>
<radialGradient id="g" cx="38%" cy="32%" r="75%"><stop offset="0" stop-color="#fff6e0"/><stop offset=".35" stop-color="#ffe08a"/><stop offset="1" stop-color="#ff9f5a"/></radialGradient>
<radialGradient id="glow" cx="50%" cy="50%" r="50%"><stop offset=".55" stop-color="#ffe08a" stop-opacity=".45"/><stop offset="1" stop-color="#ff9f5a" stop-opacity="0"/></radialGradient>
</defs>
<circle cx="100" cy="104" r="96" fill="url(#glow)"/>
<g>
<circle cx="100" cy="106" r="62" fill="url(#g)"/>
<ellipse cx="78" cy="78" rx="14" ry="8" fill="#fff" opacity=".45" transform="rotate(-30 78 78)"/>
<ellipse cx="66" cy="120" rx="10" ry="6" fill="#ff8fa3" opacity=".55"/><ellipse cx="134" cy="120" rx="10" ry="6" fill="#ff8fa3" opacity=".55"/>
<path d="M68 102 q10 -12 20 0 M112 102 q10 -12 20 0" stroke="#1b1733" stroke-width="5" fill="none" stroke-linecap="round"/>
<path d="M82 124 q18 16 36 0" stroke="#1b1733" stroke-width="5" fill="none" stroke-linecap="round"/>
</g>
<g transform="translate(100 34)"><path d="M-22 10 L-14 -12 L0 4 L14 -12 L22 10 Z" fill="#ffd27a" stroke="#c98a2b" stroke-width="3"/><circle cx="0" cy="-2" r="3" fill="#ff8fa3"/><animateTransform attributeName="transform" type="translate" values="100 34;100 28;100 34" dur="2s" repeatCount="indefinite"/></g>
</svg>
