<svg xmlns="http://www.w3.org/2000/svg" viewBox="0 0 200 200" width="200" height="200">
<defs>
<radialGradient id="g" cx="38%" cy="32%" r="75%"><stop offset="0" stop-color="#fff6e0"/><stop offset=".35" stop-color="#a8c8ff"/><stop offset="1" stop-color="#7c8cff"/></radialGradient>
<radialGradient id="glow" cx="50%" cy="50%" r="50%"><stop offset=".55" stop-color="#a8c8ff" stop-opacity=".45"/><stop offset="1" stop-color="#7c8cff" stop-opacity="0"/></radialGradient>
</defs>
<circle cx="100" cy="104" r="96" fill="url(#glow)"/>
<g>
<circle cx="100" cy="106" r="62" fill="url(#g)"/>
<ellipse cx="78" cy="78" rx="14" ry="8" fill="#fff" opacity=".45" transform="rotate(-30 78 78)"/>
<ellipse cx="66" cy="120" rx="10" ry="6" fill="#ff8fa3" opacity=".55"/><ellipse cx="134" cy="120" rx="10" ry="6" fill="#ff8fa3" opacity=".55"/>
<path d="M68 100 q10 8 20 0 M112 100 q10 8 20 0" stroke="#1b1733" stroke-width="5" fill="none" stroke-linecap="round"/>
<path d="M84 134 q16 -12 32 0" stroke="#1b1733" stroke-width="5" fill="none" stroke-linecap="round"/>
</g>
<path d="M72 112 q-4 10 0 14 q4 -4 0 -14 z" fill="#8fd8ff"><animate attributeName="opacity" values="0;1;1;0" dur="3s" repeatCount="indefinite"/><animateTransform attributeName="transform" type="translate" values="0 0;0 18" dur="3s" repeatCount="indefinite"/></path><g transform="translate(100 172)"><path d="M-30 0 q30 -26 60 0" stroke="#ff8fa3" stroke-width="6" fill="none" stroke-linecap="round"/><text x="-8" y="-6" font-size="20">💗</text></g>
</svg>
